<?xml version="1.0" standalone="no"?>
<!DOCTYPE svg PUBLIC "-//W3C//DTD SVG 20010904//EN"
 "http://www.w3.org/TR/2001/REC-SVG-20010904/DTD/svg10.dtd">
<svg version="1.0" xmlns="http://www.w3.org/2000/svg"
 width="561.000000pt" height="609.000000pt" viewBox="0 0 561.000000 609.000000"
 preserveAspectRatio="xMidYMid meet">
<metadata>
Created by potrace 1.16, written by Peter Selinger 2001-2019
</metadata>
<g transform="translate(0.000000,609.000000) scale(0.100000,-0.100000)"
fill="#000000" stroke="none">
<path d="M2723 5992 c-255 -311 -514 -562 -742 -719 -25 -17 -51 -36 -57 -41
-26 -23 -257 -151 -354 -196 -385 -178 -860 -265 -1443 -266 l-127 0 5 -167
c9 -264 25 -526 41 -673 69 -628 259 -1250 526 -1725 53 -93 158 -266 168
-275 3 -3 27 -39 55 -80 27 -41 58 -87 70 -101 11 -14 31 -41 45 -59 33 -45
164 -203 214 -260 52 -58 366 -372 431 -431 62 -56 248 -214 300 -255 22 -17
65 -51 95 -75 76 -61 320 -245 405 -306 39 -27 152 -109 253 -181 101 -73 186
-132 189 -132 8 0 121 78 268 184 61 44 142 102 180 129 118 84 343 256 480
366 235 189 326 271 545 491 171 170 213 216 290 310 25 30 51 61 58 68 7 8
25 30 40 50 15 21 29 39 32 42 3 3 17 21 30 40 13 19 27 37 30 40 4 3 31 41
61 85 347 507 573 1066 689 1705 56 314 86 654 93 1053 l2 157 -120 0 c-713 1
-1251 128 -1705 403 -47 29 -87 54 -90 57 -3 3 -25 19 -50 35 -220 147 -489
407 -760 735 -34 41 -65 76 -69 77 -3 2 -38 -37 -78 -85z m163 -319 c170 -187
350 -357 484 -459 36 -27 67 -52 70 -55 3 -4 57 -40 120 -82 265 -174 539
-296 831 -371 268 -68 509 -103 799 -114 l185 -7 3 -100 c6 -168 -28 -570 -64
-775 -8 -47 -20 -111 -25 -143 -35 -209 -151 -629 -214 -772 -7 -16 -25 -61
-40 -100 -41 -104 -138 -306 -202 -420 -111 -196 -302 -473 -425 -614 -12 -14
-52 -60 -87 -101 -88 -103 -374 -386 -501 -496 -211 -182 -586 -472 -845 -654
-43 -30 -98 -70 -122 -87 -24 -18 -48 -33 -54 -33 -5 0 -27 13 -47 28 -20 16
-84 62 -142 103 -106 74 -484 355 -524 389 -11 10 -75 63 -141 116 -422 343
-765 711 -1010 1080 -94 141 -94 140 -141 224 -253 444 -403 876 -503 1450
-40 228 -76 650 -69 820 l3 85 180 7 c576 22 1073 154 1495 396 267 153 533
378 818 690 42 45 78 82 82 82 4 0 42 -39 86 -87z"/>
<path d="M2832 4934 l3 -107 80 -21 80 -21 3 -312 2 -313 80 0 80 0 0 284 c0
157 3 287 8 290 7 4 89 -12 140 -28 22 -7 22 -6 22 81 l0 89 -237 78 c-131 44
-244 81 -251 84 -10 3 -12 -19 -10 -104z"/>
<path d="M2648 5008 l-68 -21 0 -413 0 -414 85 0 85 0 0 -29 c0 -23 5 -30 25
-33 22 -5 25 -1 29 36 2 23 4 113 3 201 l-2 160 -30 0 -30 1 -3 267 c-2 204
-5 267 -15 266 -6 0 -42 -10 -79 -21z"/>
<path d="M2295 4899 c-104 -32 -216 -66 -247 -76 l-58 -18 0 -77 c0 -88 -4
-85 85 -63 33 8 66 14 73 15 9 0 12 -53 12 -235 0 -129 -3 -235 -7 -235 -9 0
-73 96 -73 108 0 5 -10 18 -23 30 -20 19 -26 20 -41 9 -17 -13 -13 -22 63
-138 44 -68 83 -128 85 -134 3 -6 9 -4 14 4 5 7 15 10 21 7 6 -4 11 -1 11 8 0
8 -4 18 -10 21 -5 3 -10 13 -10 21 0 11 15 14 65 14 l65 0 2 282 3 282 83 20
82 20 0 98 c0 54 -1 98 -2 97 -2 0 -88 -27 -193 -60z"/>
<path d="M3414 4835 c-12 -29 2 -479 16 -525 15 -51 16 -47 -52 -159 -42 -68
-44 -76 -25 -68 10 4 13 -2 9 -21 -6 -34 2 -26 63 68 26 41 50 77 52 79 2 3
13 -5 26 -16 33 -31 91 -45 177 -45 88 0 139 18 188 65 51 49 62 103 62 308
l0 178 -51 15 c-28 9 -66 18 -85 22 l-34 6 0 -204 c0 -203 0 -205 -24 -227
-44 -41 -125 -22 -146 35 -6 14 -10 117 -10 229 0 112 -3 210 -6 219 -3 9 -14
16 -24 16 -9 0 -43 9 -74 20 -48 16 -58 17 -62 5z"/>
<path d="M1659 4717 c-79 -27 -131 -64 -164 -118 -31 -48 -32 -96 -2 -140 26
-39 62 -53 181 -74 78 -14 105 -31 106 -66 0 -18 -35 -58 -53 -60 -7 -1 -23
-3 -37 -4 -27 -3 -80 43 -80 70 0 14 -8 16 -52 10 -106 -13 -109 -14 -102 -43
26 -106 100 -147 252 -140 141 6 199 49 223 166 11 53 11 68 -2 105 -25 67
-73 95 -188 107 -57 5 -100 15 -109 23 -37 38 57 93 105 62 13 -9 23 -22 23
-30 0 -20 15 -19 94 5 38 12 66 26 66 34 0 27 -30 85 -52 100 -33 23 -130 20
-209 -7z"/>
<path d="M4000 4616 l0 -64 85 -13 c47 -7 85 -15 86 -18 0 -3 2 -67 3 -141 2
-74 4 -157 4 -183 l2 -48 78 3 77 3 5 170 c4 150 7 170 22 169 9 -1 46 -5 82
-9 l66 -7 0 50 0 51 -52 10 c-103 22 -451 91 -454 91 -2 0 -4 -29 -4 -64z"/>
<path d="M1280 4622 l-65 -17 -5 -124 -5 -124 -33 39 c-18 21 -63 70 -100 108
l-67 68 -69 -6 c-38 -3 -72 -9 -77 -12 -5 -3 -9 -95 -9 -205 l0 -199 75 0 75
0 1 93 c1 50 1 100 0 110 -2 17 25 25 31 8 2 -5 21 -29 43 -53 22 -24 62 -69
89 -101 l49 -58 76 3 76 3 0 239 c0 151 -4 240 -10 242 -5 1 -39 -5 -75 -14z"/>
<path d="M4664 4543 c-42 -8 -100 -69 -114 -119 -26 -93 18 -203 98 -243 54
-27 87 -33 183 -32 134 1 215 39 250 115 25 54 24 110 -2 164 -40 82 -144 123
-304 121 -49 -1 -100 -4 -111 -6z m240 -112 c43 -40 39 -144 -7 -176 -13 -9
-43 -15 -75 -15 -46 0 -58 4 -83 29 -25 26 -29 37 -29 86 0 47 4 60 26 82 23
23 31 25 85 21 43 -3 65 -10 83 -27z"/>
<path d="M560 4345 l0 -195 80 0 c74 0 80 2 85 23 3 12 4 99 3 192 l-3 170
-82 3 -83 3 0 -196z"/>
<path d="M436 4052 c-10 -9 -7 -210 3 -216 5 -4 15 -4 23 -1 10 4 12 25 10 83
l-2 77 33 -39 34 -38 22 31 c12 17 26 31 31 31 5 0 10 -33 12 -72 2 -57 6 -73
18 -73 12 0 16 20 18 111 l3 111 -26 -4 c-14 -3 -34 -19 -46 -39 -26 -42 -38
-43 -66 0 -20 31 -55 51 -67 38z"/>
<path d="M771 4052 c-40 -12 -64 -54 -63 -108 2 -83 55 -125 137 -110 78 15
102 140 39 203 -15 16 -81 24 -113 15z m68 -22 c27 0 42 -122 19 -152 -22 -28
-55 -31 -77 -9 -21 21 -24 37 -21 101 1 38 34 75 57 65 8 -3 18 -5 22 -5z"/>
<path d="M984 4051 c-2 -2 -4 -50 -4 -107 0 -72 4 -103 13 -106 26 -10 134 8
150 24 45 45 45 129 -1 163 -25 18 -145 38 -158 26z"/>
<path d="M1302 4052 l-63 -3 3 -106 3 -107 70 1 c40 1 71 6 73 12 2 7 -15 11
-47 11 l-51 0 0 40 0 40 45 0 c25 0 45 5 45 10 0 6 -20 10 -45 10 -45 0 -45 0
-45 35 0 35 0 35 44 35 25 0 47 4 50 9 9 13 -12 16 -82 13z"/>
<path d="M1882 4046 c-35 -16 -52 -49 -52 -101 0 -91 67 -136 157 -105 38 14
53 46 53 114 0 42 -5 57 -23 74 -30 28 -93 36 -135 18z m94 -30 c18 -18 19
-116 2 -138 -21 -25 -57 -29 -79 -7 -14 14 -19 33 -19 77 0 32 5 63 12 70 16
16 66 15 84 -2z"/>
<path d="M2485 4047 c-73 -34 -73 -172 0 -205 54 -25 125 -7 145 36 5 13 10
47 10 76 0 43 -5 57 -24 75 -30 28 -91 36 -131 18z m92 -29 c33 -42 16 -157
-24 -159 -54 -4 -73 16 -73 77 0 66 17 94 55 94 18 0 37 -6 42 -12z"/>
<path d="M3531 4046 c-17 -22 -71 -200 -63 -208 13 -13 39 1 45 23 4 15 14 19
46 19 28 0 41 -4 41 -14 0 -19 27 -39 44 -33 12 5 8 25 -23 113 -32 90 -41
108 -60 109 -12 1 -25 -3 -30 -9z"/>
<path d="M3857 4053 c-7 -6 64 -206 77 -215 5 -3 14 -4 20 -2 16 6 87 212 76
219 -22 14 -48 -16 -61 -70 -8 -31 -18 -57 -23 -58 -5 -1 -16 25 -25 57 -12
43 -22 61 -38 67 -11 4 -23 5 -26 2z"/>
<path d="M4143 4052 c-18 -3 -28 -22 -57 -108 -29 -87 -32 -106 -20 -111 17
-6 44 14 44 33 0 10 13 14 40 14 34 0 42 -4 50 -26 7 -18 15 -24 26 -20 9 3
17 6 19 6 5 0 -17 84 -25 95 -4 6 -13 31 -20 57 -14 54 -25 66 -57 60z"/>
<path d="M4574 4048 c-14 -22 -72 -203 -68 -210 10 -17 35 -7 44 17 8 21 16
25 47 25 30 0 40 -5 48 -22 6 -13 19 -23 30 -23 26 0 24 15 -18 129 -27 76
-36 90 -55 91 -13 1 -25 -2 -28 -7z"/>
<path d="M5055 4051 c-56 -24 -80 -101 -51 -163 28 -58 101 -76 162 -39 52 31
60 122 17 171 -30 33 -90 48 -128 31z m103 -99 c4 -44 1 -54 -21 -76 -31 -31
-38 -32 -67 -8 -15 12 -23 32 -26 62 -6 54 12 92 46 101 37 9 62 -19 68 -79z"/>
<path d="M2220 3946 c0 -62 4 -107 10 -111 14 -8 42 14 34 27 -3 5 -3 25 0 44
6 30 9 33 26 24 11 -6 30 -30 41 -53 27 -53 24 -50 47 -43 19 6 19 7 1 42 -10
20 -26 45 -36 56 -17 19 -17 20 0 29 24 14 21 55 -5 73 -13 9 -43 16 -70 16
l-48 0 0 -104z"/>
<path d="M2710 3940 c0 -81 3 -110 13 -110 6 0 39 4 72 10 71 11 105 42 105
95 0 80 -41 115 -135 115 l-55 0 0 -110z"/>
<path d="M3005 4038 c-10 -27 -65 -192 -65 -195 0 -2 11 -3 24 -3 15 0 26 7
29 20 8 30 79 29 92 -2 9 -21 44 -33 46 -15 1 13 -31 115 -51 161 -16 38 -24
46 -45 46 -14 0 -28 -6 -30 -12z"/>
<path d="M4302 3943 c3 -100 4 -108 23 -108 17 0 20 8 23 48 4 64 31 65 61 3
23 -50 32 -59 55 -50 14 5 13 11 -5 47 -12 22 -28 47 -35 55 -12 12 -11 16 7
31 16 13 20 23 14 40 -8 27 -42 41 -101 41 l-45 0 3 -107z"/>
<path d="M4750 3947 c0 -57 2 -106 4 -108 3 -3 35 -2 72 1 56 5 70 10 90 33
36 42 34 109 -5 148 -27 26 -36 29 -95 29 l-66 0 0 -103z"/>
<path d="M1590 3810 c-19 -12 -5 -23 109 -81 47 -24 149 -77 226 -117 77 -41
184 -98 237 -126 73 -38 93 -53 80 -58 -9 -4 -113 -16 -231 -28 l-214 -20
-239 -90 c-216 -81 -245 -90 -308 -90 -67 0 -69 -1 -72 -27 -3 -24 -13 -31
-88 -60 -61 -24 -95 -43 -120 -71 -42 -46 -154 -172 -201 -227 -19 -22 -54
-62 -79 -88 -67 -72 -78 -93 -60 -112 13 -12 70 -15 365 -16 l350 0 0 -76 0
-75 137 1 c136 2 137 2 142 -21 3 -13 12 -58 20 -100 8 -42 31 -118 51 -168
20 -50 34 -95 30 -98 -4 -4 -55 -32 -113 -62 -73 -37 -107 -60 -106 -71 1 -9
18 -42 38 -72 l37 -56 124 61 123 61 33 -38 c74 -85 114 -120 252 -226 20 -16
20 -16 -27 -90 -27 -41 -57 -86 -67 -101 -11 -15 -19 -31 -19 -36 0 -12 140
-83 150 -77 4 3 36 50 71 106 53 84 66 100 84 95 11 -2 64 -18 117 -35 54 -16
139 -36 190 -43 l93 -13 3 -128 3 -127 89 0 89 0 3 127 3 127 85 12 c89 13
217 46 275 70 19 8 40 14 47 14 7 0 42 -46 77 -102 36 -57 66 -105 68 -108 6
-6 153 71 153 81 0 8 -86 146 -115 184 -8 10 -15 22 -15 26 0 3 30 29 68 57
70 53 145 122 200 186 39 44 37 45 176 -31 l100 -55 18 24 c37 46 69 108 63
118 -4 6 -56 35 -116 65 -60 31 -109 60 -109 66 0 5 7 23 15 39 26 51 74 210
81 270 8 71 5 70 172 70 l124 0 -4 74 -3 74 349 1 c235 1 354 5 363 13 24 20
21 26 -79 139 -31 35 -65 73 -75 85 -194 227 -216 246 -321 284 -88 31 -106
42 -107 65 0 6 -29 13 -65 16 -47 5 -126 30 -285 91 -237 91 -232 90 -545 119
-69 7 -130 15 -137 18 -14 7 8 19 392 218 143 74 264 138 269 143 23 23 -112
-6 -168 -35 -34 -17 -155 -80 -271 -140 -245 -127 -286 -151 -282 -168 1 -6
-5 -11 -13 -10 -8 2 -121 14 -250 27 -253 26 -234 27 -581 -14 -123 -14 -146
-13 -151 8 -3 12 -61 47 -156 95 -192 98 -216 111 -222 118 -3 3 -21 11 -40
19 -19 8 -61 29 -92 46 -31 18 -74 38 -95 45 -21 7 -45 19 -54 26 -18 15 -29
16 -49 3z m1172 -706 c2 -168 0 -308 -3 -310 -7 -4 -49 77 -49 95 0 6 -11 29
-25 51 -14 22 -25 41 -25 43 0 2 -23 46 -51 98 -124 227 -159 293 -154 297 5
5 207 28 267 31 l37 1 3 -306z m219 296 c46 -6 99 -13 117 -16 l33 -5 -59
-112 c-33 -62 -83 -157 -112 -212 -29 -55 -56 -105 -61 -110 -4 -6 -17 -36
-29 -68 -12 -31 -26 -55 -31 -51 -5 3 -7 10 -4 15 4 5 6 135 5 289 l0 280 28
0 c16 0 67 -5 113 -10z m-695 -124 l-35 -76 -100 0 -101 0 0 70 c0 39 3 70 8
71 124 14 258 23 260 18 1 -3 -13 -41 -32 -83z m1089 84 c50 -5 109 -12 133
-15 l42 -6 0 -70 0 -70 -102 3 -103 3 -37 70 c-37 69 -45 95 -30 95 4 0 48 -5
97 -10z m-1405 -42 c0 -5 0 -34 0 -65 l0 -58 -127 3 c-115 2 -130 5 -145 23
-10 12 -18 27 -18 34 0 7 8 15 18 18 9 4 35 14 57 22 62 25 216 41 215 23z
m1879 -24 c35 -13 65 -25 68 -28 2 -2 -3 -18 -11 -35 l-16 -30 -130 -3 -130
-3 -1 48 c-1 26 -2 53 -3 60 -1 6 -1 16 2 20 7 14 156 -6 221 -29z m-1481
-284 l3 -250 -124 0 c-68 0 -126 2 -128 5 -6 6 167 354 187 376 8 8 14 20 14
25 0 11 38 94 43 94 2 0 4 -112 5 -250z m791 -127 l1 -123 -130 0 c-97 0 -130
3 -130 13 0 6 18 41 40 77 21 36 76 139 122 229 l83 164 6 -119 c4 -66 7 -174
8 -241z m95 292 c-5 -19 -1 -24 18 -27 19 -2 40 -35 116 -178 51 -96 95 -183
98 -192 5 -17 -5 -18 -126 -18 l-131 0 2 233 c1 127 4 236 7 241 9 16 22 -34
16 -59z m-725 -120 c40 -77 79 -147 86 -155 21 -26 73 -129 67 -135 -3 -3 -59
-5 -125 -5 l-119 0 6 209 c3 115 6 215 6 222 0 17 -1 19 79 -136z m-1039 84
c0 -6 -28 -54 -62 -107 -34 -53 -84 -132 -111 -174 -27 -43 -51 -78 -53 -78
-2 0 -4 74 -4 164 l0 163 53 21 c57 22 177 29 177 11z m484 -7 c8 -25 3 -363
-5 -368 -8 -4 -219 358 -219 375 0 7 37 11 109 11 97 0 110 -2 115 -18z m239
11 c3 -5 -33 -82 -79 -173 l-83 -165 0 173 -1 172 79 0 c44 0 82 -3 84 -7z
m1337 -160 l0 -168 -46 85 c-57 106 -124 238 -124 245 0 3 38 5 85 5 l85 0 0
-167z m300 160 c0 -3 -26 -49 -58 -102 -32 -53 -80 -133 -106 -178 -26 -46
-51 -83 -54 -83 -6 0 -8 282 -3 353 1 15 13 17 111 17 61 0 110 -3 110 -7z
m431 -14 l59 -22 0 -173 c0 -142 -3 -174 -14 -174 -8 0 -42 48 -77 108 -34 59
-84 143 -110 187 -26 44 -45 83 -43 87 10 16 128 8 185 -13z m-2604 -6 c4 -10
49 -91 100 -181 51 -90 93 -167 93 -173 0 -6 -42 -9 -107 -7 l-108 3 -3 188
c-2 126 1 187 8 187 6 0 14 -8 17 -17z m2271 -170 l-3 -188 -118 -3 c-66 -1
-117 1 -115 5 3 7 92 160 118 203 5 8 30 50 56 93 25 42 50 77 55 77 6 0 8
-74 7 -187z m-2368 -8 l0 -185 -115 0 c-85 0 -115 3 -115 13 0 6 26 51 58 99
31 48 81 126 110 173 29 47 55 85 58 85 2 0 4 -83 4 -185z m2549 -9 c50 -87
91 -163 91 -167 0 -5 -45 -9 -100 -9 l-100 0 0 177 c0 105 4 173 9 168 5 -6
50 -81 100 -169z m-2941 -18 l-3 -153 -111 -3 c-94 -2 -117 0 -157 18 -26 12
-47 27 -47 34 0 6 40 57 89 112 74 83 99 104 143 122 94 37 89 44 86 -130z
m3304 131 c49 -19 70 -35 131 -102 40 -43 72 -84 72 -90 0 -7 -36 -31 -80 -55
-72 -39 -86 -42 -140 -40 l-60 3 -3 153 c-2 111 1 152 9 152 7 0 38 -10 71
-21z m-2099 -474 c-149 -38 -133 7 -133 -375 0 -203 4 -331 10 -335 5 -3 33 1
62 10 113 35 337 29 436 -11 17 -7 32 -9 32 -5 0 15 151 41 238 41 75 0 120
-7 250 -37 l22 -5 0 336 0 337 -34 14 c-19 8 -56 20 -83 26 -26 6 -61 15 -78
19 -17 4 113 8 295 9 l325 1 -6 -112 c-9 -142 -39 -243 -111 -361 -131 -214
-325 -351 -594 -418 -136 -34 -323 -32 -464 5 -256 67 -453 208 -577 412 -72
119 -103 220 -112 361 l-6 111 310 0 310 0 -92 -23z m312 -5 c71 -18 83 -19
134 -6 103 26 163 28 264 10 53 -9 101 -20 108 -25 16 -9 20 -589 4 -589 -5 0
-44 7 -85 16 -86 18 -216 14 -292 -9 -42 -13 -54 -13 -125 4 -94 23 -199 24
-276 4 -32 -8 -65 -15 -72 -15 -13 0 -15 44 -15 294 l0 294 73 16 c138 30 185
31 282 6z m-365 -640 c5 0 31 8 57 17 70 26 279 25 346 -1 38 -14 54 -16 70
-8 90 45 256 43 409 -4 17 -5 18 15 20 298 2 194 7 303 13 303 6 0 11 -116 13
-324 l2 -323 -22 6 c-112 32 -159 38 -253 33 -55 -3 -124 -13 -153 -22 -51
-15 -57 -15 -134 4 -122 31 -257 26 -390 -15 -17 -5 -18 15 -18 314 0 247 3
321 13 325 9 3 13 -62 15 -300 1 -183 6 -303 12 -303z"/>
<path d="M2065 1110 c-10 -17 -8 -251 3 -262 5 -5 33 -8 63 -6 l54 3 3 43 c3
37 1 42 -17 42 -16 0 -21 -6 -21 -25 0 -20 -5 -25 -25 -25 l-25 0 0 100 0 100
25 0 c20 0 25 -5 25 -25 0 -19 5 -25 21 -25 18 0 20 5 17 43 l-3 42 -57 3
c-34 2 -59 -2 -63 -8z"/>
<path d="M2214 983 c1 -131 2 -138 21 -138 18 0 20 6 17 58 -3 55 8 87 29 87
5 0 9 -34 9 -75 0 -69 2 -75 20 -75 20 0 21 5 18 88 l-3 87 -35 0 -35 0 -1 50
c-1 42 -4 50 -22 53 -19 3 -20 -1 -18 -135z"/>
<path d="M2370 1005 c-6 -8 -9 -19 -5 -25 8 -13 35 -13 35 0 0 6 9 10 20 10
13 0 20 -7 20 -20 0 -16 -7 -20 -34 -20 -36 0 -46 -12 -46 -55 0 -48 9 -55 66
-55 l54 0 0 90 0 90 -49 0 c-30 0 -53 -5 -61 -15z"/>
<path d="M2503 932 c2 -80 4 -87 22 -87 18 0 20 6 17 66 -3 52 0 67 11 72 23
9 27 -1 27 -75 0 -61 2 -68 20 -68 18 0 20 7 20 69 0 65 7 81 36 81 2 0 4 -34
4 -75 0 -69 2 -75 20 -75 20 0 21 5 18 88 -3 86 -3 87 -28 84 -32 -3 -33 -3
-107 2 l-62 4 2 -86z"/>
<path d="M2735 976 c-6 -35 -4 -84 4 -134 1 -2 25 -2 54 0 48 3 52 5 55 31 3
22 -1 27 -17 27 -12 0 -21 -7 -21 -15 0 -9 -9 -15 -21 -15 -15 0 -20 5 -17 23
2 18 10 23 41 25 l38 3 -3 47 -3 47 -52 3 -52 3 -6 -45z"/>
<path d="M2951 1007 c-12 -16 -13 -137 -1 -157 4 -7 27 -10 56 -8 45 3 49 5
52 31 3 22 -1 27 -17 27 -12 0 -21 -7 -21 -15 0 -8 -9 -15 -20 -15 -15 0 -20
7 -20 25 0 23 4 25 41 25 l40 0 -3 48 -3 47 -46 3 c-31 2 -50 -2 -58 -11z"/>
<path d="M3234 1007 c-3 -8 -4 -47 -2 -88 l3 -74 58 -3 57 -3 0 91 0 90 -55 0
c-37 0 -57 -4 -61 -13z"/>
<path d="M3383 1003 c-3 -6 -3 -45 -1 -85 3 -65 5 -73 23 -73 18 0 20 6 17 62
-3 54 -1 63 17 73 20 10 21 8 21 -65 0 -68 2 -75 20 -75 18 0 20 7 20 89 l0
88 -56 -1 c-34 0 -58 -5 -61 -13z"/>
<path d="M2636 724 c-3 -9 -6 -33 -6 -54 0 -58 8 -70 46 -70 31 0 34 -3 34
-30 0 -23 -4 -30 -20 -30 -11 0 -20 7 -20 15 0 9 -9 15 -21 15 -17 0 -20 -4
-15 -22 3 -13 6 -26 6 -30 0 -7 99 -12 100 -5 7 43 10 184 6 202 -6 22 -11 25
-55 25 -35 0 -51 -4 -55 -16z"/>
<path d="M2777 733 c-11 -10 -8 -72 3 -93 7 -13 7 -21 0 -25 -11 -7 -14 -64
-4 -89 9 -23 99 -23 108 0 9 23 7 67 -3 83 -6 9 -5 23 1 37 6 12 7 39 4 58 -7
35 -8 36 -55 36 -26 0 -51 -3 -54 -7z"/>
</g>
</svg>
